<svg width="419" height="419" viewBox="0 0 419 419" fill="none" xmlns="http://www.w3.org/2000/svg">
<path d="M32.5895 224.249C32.5895 224.249 35.6398 286.747 88.4255 326.87C141.211 366.985 213.447 367.781 271.956 369.96C330.465 372.147 374.804 337.613 380.737 287.275C386.67 236.936 341.77 223.578 316.596 167.239C291.423 110.909 293.266 92.0793 241.419 58.5425C189.572 24.9974 109.736 48.9893 68.6822 110.398C27.6369 171.815 32.5895 224.249 32.5895 224.249Z" fill="#F4F4F5"/>
<path opacity="0.7" d="M32.5895 224.249C32.5895 224.249 35.6398 286.747 88.4255 326.87C141.211 366.985 213.447 367.781 271.956 369.96C330.465 372.147 374.804 337.613 380.737 287.275C386.67 236.936 341.77 223.578 316.596 167.239C291.423 110.909 293.266 92.0793 241.419 58.5425C189.572 24.9974 109.736 48.9893 68.6822 110.398C27.6369 171.815 32.5895 224.249 32.5895 224.249Z" fill="#F4F4F5"/>
<path d="M352.571 312.457C352.571 312.457 349.722 300.339 351.859 289.646C353.996 278.953 358.982 286.085 364.689 278.953C370.396 271.822 367.538 258.288 373.957 252.582C380.368 246.883 389.636 247.596 391.773 236.903C393.91 226.21 395.335 217.662 399.617 219.087C403.891 220.511 396.055 233.341 396.055 241.176C396.055 249.012 400.329 254.006 397.48 261.842C394.631 269.685 382.513 266.828 382.513 276.096C382.513 285.364 387.499 294.624 383.226 301.043C378.952 307.454 367.547 308.887 366.122 312.448C364.697 316.01 361.136 322.429 357.566 322.429C353.996 322.437 352.571 312.457 352.571 312.457Z" fill="#BBF7D0"/>
<path d="M350.25 312.583C350.963 310.446 349.538 291.917 343.127 288.348C336.717 284.786 329.585 286.211 326.024 279.792C322.462 273.381 322.462 270.523 318.901 269.811C315.339 269.099 298.236 266.25 300.373 269.811C302.509 273.373 315.339 267.674 315.339 274.797C315.339 281.92 313.915 293.325 318.188 296.174C322.462 299.024 333.867 298.311 333.155 304.73C332.443 311.141 330.306 313.286 333.867 315.423C337.429 317.56 347.409 326.829 348.834 319.697C350.25 312.583 350.25 312.583 350.25 312.583Z" fill="#BBF7D0"/>
<path d="M358.186 328.303C358.186 328.303 354.867 317.929 363.993 298.839C373.128 279.749 379.764 265.227 383.913 257.752" stroke="#27272A" stroke-width="1.2565" stroke-miterlimit="10"/>
<path d="M350.712 329.963C350.712 329.963 349.463 324.985 345.315 311.284C341.167 297.591 336.181 293.853 329.133 289.286C322.077 284.719 321.667 277.253 320.418 275.174" stroke="#27272A" stroke-width="1.2565" stroke-miterlimit="10"/>
<path d="M368.142 322.488C368.142 322.488 368.971 315.021 375.608 312.943C382.245 310.865 388.471 311.694 389.72 307.136C390.969 302.569 390.969 298.001 393.868 295.513C396.776 293.024 400.505 291.775 400.924 293.024C401.343 294.272 396.776 295.102 396.776 299.25C396.776 303.398 403.002 313.773 393.868 317.929C384.734 322.077 377.267 318.348 373.949 321.248C370.63 324.155 368.552 326.225 368.552 326.225L368.142 322.488Z" fill="#BBF7D0"/>
<path d="M367.312 329.963C367.312 329.963 370.219 319.169 377.275 316.68C384.331 314.191 392.217 319.588 395.535 314.602C398.854 309.624 396.365 304.638 395.954 301.32" stroke="#27272A" stroke-width="1.2565" stroke-miterlimit="10"/>
<path d="M371.979 328.303H346.244C345.096 328.303 344.166 329.233 344.166 330.381C344.166 331.53 345.096 332.46 346.244 332.46H346.454L348.457 337.714C348.775 338.552 349.571 339.097 350.468 339.097H367.756C368.652 339.097 369.448 338.544 369.767 337.714L371.77 332.46H371.979C373.127 332.46 374.057 331.53 374.057 330.381C374.057 329.225 373.127 328.303 371.979 328.303Z" fill="#27272A"/>
<path d="M380.628 233.618H257.543C255.356 233.618 253.579 231.841 253.579 229.654V214.093C253.579 211.905 255.356 210.129 257.543 210.129H380.628C382.815 210.129 384.592 211.905 384.592 214.093V229.654C384.592 231.841 382.824 233.618 380.628 233.618Z" fill="#EA6E6D"/>
<path d="M263.694 225.096C263.577 224.987 263.51 224.845 263.51 224.66V217.034C263.51 216.85 263.568 216.699 263.694 216.599C263.82 216.49 263.971 216.439 264.138 216.439C264.306 216.439 264.448 216.49 264.574 216.599C264.691 216.708 264.758 216.85 264.758 217.043V224.669C264.758 224.861 264.7 225.004 264.574 225.104C264.448 225.205 264.306 225.255 264.13 225.255C263.962 225.255 263.82 225.205 263.694 225.096Z" fill="#27272A"/>
<path d="M267.105 225.121C266.996 225.029 266.945 224.894 266.945 224.727V219.657C266.945 219.489 267.004 219.364 267.113 219.271C267.222 219.179 267.356 219.129 267.507 219.129C267.658 219.129 267.792 219.171 267.901 219.263C268.01 219.355 268.068 219.473 268.068 219.64V220.177C268.227 219.799 268.479 219.515 268.839 219.313C269.191 219.112 269.61 219.012 270.079 219.012C270.758 219.012 271.303 219.213 271.705 219.607C272.107 220.001 272.309 220.604 272.309 221.4V224.735C272.309 224.903 272.258 225.037 272.141 225.129C272.032 225.221 271.898 225.272 271.747 225.272C271.596 225.272 271.462 225.221 271.353 225.129C271.244 225.037 271.186 224.903 271.186 224.735V221.392C271.186 220.864 271.06 220.461 270.817 220.185C270.574 219.908 270.23 219.774 269.786 219.774C269.317 219.774 268.915 219.942 268.588 220.277C268.261 220.612 268.085 221.073 268.06 221.651V224.727C268.06 224.894 268.001 225.02 267.892 225.112C267.783 225.205 267.649 225.255 267.498 225.255C267.339 225.263 267.205 225.213 267.105 225.121Z" fill="#27272A"/>
<path d="M274.965 224.886C274.689 224.576 274.546 224.107 274.546 223.47V219.917H273.792C273.658 219.917 273.549 219.884 273.482 219.817C273.407 219.75 273.373 219.666 273.373 219.548C273.373 219.439 273.407 219.356 273.482 219.289C273.549 219.222 273.658 219.188 273.792 219.188H274.555L274.705 217.437C274.714 217.303 274.772 217.194 274.881 217.101C274.99 217.009 275.108 216.959 275.242 216.959C275.367 216.959 275.468 217.001 275.552 217.076C275.636 217.152 275.678 217.261 275.678 217.403V219.196H276.809C276.943 219.196 277.043 219.23 277.111 219.305C277.178 219.372 277.211 219.465 277.211 219.574C277.211 219.808 277.077 219.926 276.8 219.926H275.669V223.286C275.669 223.713 275.728 224.015 275.845 224.199C275.962 224.384 276.155 224.476 276.415 224.476H276.482L276.901 224.459H276.935C277.069 224.459 277.178 224.501 277.253 224.585C277.328 224.669 277.37 224.769 277.37 224.886C277.37 224.987 277.345 225.071 277.303 225.138C277.261 225.205 277.186 225.247 277.094 225.28C277.002 225.305 276.909 225.331 276.817 225.339C276.725 225.347 276.608 225.347 276.457 225.347H276.097C275.627 225.347 275.25 225.197 274.965 224.886Z" fill="#27272A"/>
<path d="M279.784 224.995C279.331 224.744 278.962 224.375 278.694 223.889C278.426 223.403 278.292 222.833 278.292 222.179C278.292 221.61 278.409 221.082 278.627 220.612C278.853 220.143 279.197 219.758 279.65 219.456C280.102 219.163 280.638 219.012 281.25 219.012C281.728 219.012 282.155 219.096 282.516 219.255C282.876 219.414 283.169 219.64 283.379 219.917C283.597 220.202 283.756 220.512 283.856 220.864C283.965 221.207 284.024 221.593 284.032 222.012C284.032 222.129 283.999 222.23 283.932 222.305C283.865 222.38 283.764 222.422 283.638 222.422H279.407C279.415 223.126 279.608 223.663 279.976 224.031C280.345 224.392 280.823 224.584 281.401 224.593C281.77 224.593 282.097 224.526 282.39 224.392C282.683 224.258 282.976 224.082 283.27 223.855C283.345 223.797 283.421 223.772 283.504 223.772C283.605 223.772 283.689 223.813 283.756 223.889C283.823 223.964 283.856 224.056 283.856 224.157C283.856 224.291 283.798 224.408 283.68 224.509C283.027 225.096 282.247 225.389 281.326 225.389C280.756 225.372 280.236 225.238 279.784 224.995ZM283.06 221.735C283.027 221.157 282.859 220.688 282.574 220.319C282.289 219.95 281.862 219.766 281.309 219.766C281.024 219.766 280.756 219.825 280.521 219.934C280.286 220.042 280.094 220.193 279.943 220.378C279.792 220.562 279.675 220.772 279.583 220.998C279.49 221.224 279.44 221.467 279.415 221.727H283.06V221.735Z" fill="#27272A"/>
<path d="M285.742 225.129C285.633 225.037 285.583 224.911 285.583 224.744V219.657C285.583 219.49 285.642 219.364 285.751 219.28C285.86 219.188 285.994 219.146 286.144 219.146C286.295 219.146 286.429 219.188 286.538 219.28C286.647 219.372 286.706 219.49 286.706 219.649L286.698 220.386C286.798 220.001 287.008 219.682 287.318 219.431C287.628 219.171 288.005 219.045 288.441 219.045C288.575 219.045 288.675 219.096 288.751 219.196C288.826 219.297 288.868 219.414 288.868 219.54C288.868 219.666 288.834 219.766 288.759 219.858C288.692 219.95 288.591 219.992 288.457 219.992C287.904 219.992 287.468 220.135 287.167 220.428C286.857 220.713 286.706 221.099 286.706 221.585V224.761C286.706 224.928 286.647 225.054 286.538 225.146C286.421 225.238 286.295 225.28 286.136 225.28C285.985 225.263 285.851 225.221 285.742 225.129Z" fill="#27272A"/>
<path d="M290.226 225.121C290.117 225.029 290.066 224.894 290.066 224.727V219.657C290.066 219.489 290.125 219.364 290.234 219.271C290.343 219.179 290.477 219.129 290.628 219.129C290.779 219.129 290.913 219.171 291.022 219.263C291.131 219.355 291.189 219.473 291.189 219.64V220.177C291.349 219.799 291.6 219.515 291.96 219.313C292.312 219.112 292.731 219.012 293.201 219.012C293.879 219.012 294.424 219.213 294.826 219.607C295.228 220.001 295.43 220.604 295.43 221.4V224.735C295.43 224.903 295.371 225.037 295.262 225.129C295.153 225.221 295.019 225.272 294.868 225.272C294.717 225.272 294.583 225.221 294.474 225.129C294.365 225.037 294.307 224.903 294.307 224.735V221.392C294.307 220.864 294.181 220.461 293.938 220.185C293.695 219.908 293.351 219.774 292.907 219.774C292.438 219.774 292.036 219.942 291.709 220.277C291.382 220.612 291.206 221.073 291.181 221.651V224.727C291.181 224.894 291.122 225.02 291.013 225.112C290.896 225.205 290.77 225.255 290.619 225.255C290.46 225.263 290.335 225.213 290.226 225.121Z" fill="#27272A"/>
<path d="M297.314 224.912C296.912 224.602 296.711 224.166 296.711 223.596C296.711 223.361 296.736 223.152 296.786 222.976C296.837 222.8 296.904 222.641 296.996 222.507C297.088 222.373 297.214 222.264 297.381 222.171C297.549 222.079 297.725 222.004 297.926 221.945C298.127 221.886 298.379 221.836 298.68 221.811C298.982 221.778 299.3 221.761 299.619 221.744C299.946 221.736 300.331 221.727 300.792 221.727V221.057C300.792 220.613 300.675 220.294 300.44 220.085C300.205 219.875 299.879 219.766 299.46 219.766C299.208 219.766 298.957 219.791 298.705 219.85C298.454 219.9 298.253 219.959 298.11 220.009C297.968 220.06 297.792 220.135 297.582 220.236C297.541 220.252 297.49 220.269 297.432 220.269C297.323 220.269 297.23 220.227 297.155 220.135C297.08 220.043 297.038 219.951 297.038 219.842C297.038 219.716 297.096 219.624 297.214 219.557C297.851 219.197 298.613 219.021 299.493 219.021C300.247 219.021 300.834 219.196 301.261 219.548C301.689 219.9 301.898 220.437 301.898 221.166V224.761C301.898 224.92 301.839 225.046 301.731 225.138C301.622 225.23 301.488 225.28 301.337 225.28C301.186 225.28 301.06 225.238 300.96 225.146C300.851 225.054 300.8 224.937 300.8 224.769V224.174C300.415 224.979 299.786 225.381 298.898 225.381C298.244 225.373 297.717 225.222 297.314 224.912ZM300.247 224.049C300.599 223.655 300.784 223.16 300.784 222.557V222.373C300.272 222.373 299.862 222.381 299.535 222.398C299.217 222.414 298.932 222.448 298.68 222.498C298.437 222.549 298.244 222.616 298.127 222.708C298.001 222.8 297.909 222.909 297.851 223.043C297.792 223.177 297.758 223.345 297.758 223.546C297.758 223.923 297.867 224.191 298.094 224.367C298.32 224.543 298.622 224.627 298.999 224.627C299.476 224.635 299.895 224.434 300.247 224.049Z" fill="#27272A"/>
<path d="M303.935 225.121C303.826 225.02 303.775 224.886 303.775 224.702V217.009C303.775 216.833 303.834 216.699 303.943 216.599C304.052 216.498 304.186 216.448 304.337 216.448C304.488 216.448 304.613 216.498 304.722 216.599C304.831 216.699 304.89 216.833 304.89 217.009V224.702C304.89 224.878 304.831 225.012 304.722 225.113C304.605 225.213 304.479 225.264 304.328 225.264C304.169 225.264 304.044 225.213 303.935 225.121Z" fill="#27272A"/>
<path d="M310.312 224.333C310.261 224.291 310.236 224.224 310.236 224.149C310.236 224.015 310.295 223.881 310.421 223.738C310.546 223.596 310.672 223.529 310.798 223.529C310.856 223.529 310.907 223.545 310.949 223.579C311.644 224.124 312.457 224.392 313.379 224.392C313.982 224.392 314.468 224.275 314.854 224.032C315.231 223.797 315.424 223.445 315.424 222.992C315.424 222.775 315.398 222.59 315.34 222.431C315.281 222.28 315.189 222.146 315.063 222.029C314.938 221.911 314.787 221.819 314.619 221.735C314.451 221.66 314.242 221.576 313.974 221.484L312.206 220.889C311.552 220.663 311.066 220.386 310.748 220.051C310.429 219.716 310.27 219.247 310.27 218.66C310.27 218.182 310.412 217.763 310.689 217.403C310.965 217.043 311.342 216.766 311.812 216.582C312.281 216.397 312.817 216.305 313.404 216.305C313.982 216.305 314.535 216.397 315.063 216.582C315.591 216.766 315.993 216.984 316.278 217.235C316.371 217.319 316.421 217.42 316.421 217.545C316.421 217.671 316.371 217.788 316.278 217.889C316.186 217.99 316.069 218.04 315.943 218.04C315.851 218.04 315.759 218.015 315.675 217.956C315.424 217.788 315.105 217.638 314.728 217.504C314.351 217.369 313.94 217.294 313.513 217.294C312.893 217.294 312.398 217.403 312.03 217.629C311.661 217.855 311.477 218.182 311.477 218.61C311.477 218.928 311.569 219.188 311.761 219.381C311.954 219.573 312.256 219.741 312.675 219.875L314.451 220.445C314.812 220.562 315.113 220.68 315.365 220.805C315.616 220.931 315.843 221.09 316.044 221.275C316.245 221.459 316.396 221.677 316.496 221.928C316.597 222.18 316.647 222.481 316.647 222.808C316.647 223.613 316.354 224.241 315.759 224.694C315.164 225.146 314.359 225.364 313.337 225.364C312.08 225.397 311.074 225.046 310.312 224.333Z" fill="#27272A"/>
<path d="M319.396 224.995C318.943 224.744 318.575 224.375 318.307 223.889C318.038 223.403 317.904 222.833 317.904 222.179C317.904 221.61 318.022 221.082 318.24 220.612C318.466 220.143 318.809 219.758 319.262 219.456C319.714 219.163 320.251 219.012 320.862 219.012C321.34 219.012 321.767 219.096 322.128 219.255C322.488 219.414 322.781 219.64 322.991 219.917C323.209 220.202 323.368 220.512 323.469 220.864C323.578 221.207 323.636 221.593 323.645 222.012C323.645 222.129 323.611 222.23 323.544 222.305C323.477 222.38 323.376 222.422 323.251 222.422H319.019C319.027 223.126 319.22 223.663 319.589 224.031C319.957 224.392 320.435 224.584 321.013 224.593C321.382 224.593 321.709 224.526 322.002 224.392C322.295 224.258 322.589 224.082 322.882 223.855C322.957 223.797 323.033 223.772 323.117 223.772C323.217 223.772 323.301 223.813 323.368 223.889C323.435 223.964 323.469 224.056 323.469 224.157C323.469 224.291 323.41 224.408 323.293 224.509C322.639 225.096 321.86 225.389 320.938 225.389C320.368 225.372 319.848 225.238 319.396 224.995ZM322.681 221.735C322.647 221.157 322.48 220.688 322.195 220.319C321.91 219.95 321.483 219.766 320.929 219.766C320.645 219.766 320.376 219.825 320.15 219.934C319.916 220.042 319.723 220.193 319.572 220.378C319.421 220.562 319.304 220.772 319.212 220.998C319.119 221.224 319.069 221.467 319.044 221.727H322.681V221.735Z" fill="#27272A"/>
<path d="M325.362 225.129C325.253 225.037 325.203 224.911 325.203 224.744V219.657C325.203 219.49 325.262 219.364 325.371 219.28C325.48 219.188 325.614 219.146 325.765 219.146C325.915 219.146 326.049 219.188 326.158 219.28C326.267 219.372 326.318 219.49 326.318 219.649L326.309 220.386C326.41 220.001 326.619 219.682 326.929 219.431C327.239 219.171 327.617 219.045 328.052 219.045C328.186 219.045 328.287 219.096 328.362 219.196C328.438 219.297 328.48 219.414 328.48 219.54C328.48 219.666 328.446 219.766 328.371 219.858C328.295 219.95 328.203 219.992 328.069 219.992C327.516 219.992 327.08 220.135 326.779 220.428C326.469 220.713 326.318 221.099 326.318 221.585V224.761C326.318 224.928 326.259 225.054 326.15 225.146C326.033 225.238 325.907 225.28 325.756 225.28C325.597 225.263 325.471 225.221 325.362 225.129Z" fill="#27272A"/>
<path d="M331.421 225.079C331.287 224.954 331.153 224.736 331.027 224.434L329.1 219.825C329.075 219.775 329.066 219.716 329.066 219.649C329.066 219.507 329.125 219.389 329.242 219.28C329.36 219.171 329.494 219.121 329.636 219.121C329.854 219.121 330.005 219.238 330.089 219.473L331.974 224.116L333.86 219.473C333.952 219.238 334.103 219.121 334.312 219.121C334.455 219.121 334.589 219.171 334.706 219.28C334.823 219.389 334.882 219.507 334.882 219.649C334.882 219.708 334.874 219.766 334.849 219.825L332.921 224.434C332.796 224.736 332.661 224.954 332.527 225.079C332.393 225.205 332.209 225.264 331.974 225.264C331.74 225.272 331.555 225.205 331.421 225.079Z" fill="#27272A"/>
<path d="M337.204 224.995C336.751 224.744 336.382 224.375 336.114 223.889C335.846 223.403 335.712 222.833 335.712 222.179C335.712 221.61 335.821 221.082 336.047 220.612C336.273 220.143 336.617 219.758 337.069 219.456C337.522 219.163 338.058 219.012 338.67 219.012C339.148 219.012 339.575 219.096 339.935 219.255C340.296 219.414 340.589 219.64 340.799 219.917C341.016 220.202 341.176 220.512 341.276 220.864C341.385 221.207 341.444 221.593 341.452 222.012C341.452 222.129 341.419 222.23 341.352 222.305C341.285 222.38 341.184 222.422 341.058 222.422H336.826C336.835 223.126 337.028 223.663 337.396 224.031C337.765 224.392 338.243 224.584 338.821 224.593C339.19 224.593 339.516 224.526 339.81 224.392C340.103 224.258 340.396 224.082 340.69 223.855C340.765 223.797 340.84 223.772 340.924 223.772C341.025 223.772 341.109 223.813 341.176 223.889C341.243 223.964 341.276 224.056 341.276 224.157C341.276 224.291 341.218 224.408 341.1 224.509C340.447 225.096 339.667 225.389 338.745 225.389C338.176 225.372 337.656 225.238 337.204 224.995ZM340.489 221.735C340.455 221.157 340.287 220.688 340.002 220.319C339.718 219.95 339.29 219.766 338.737 219.766C338.452 219.766 338.184 219.825 337.958 219.934C337.723 220.042 337.53 220.193 337.38 220.378C337.229 220.562 337.111 220.772 337.019 220.998C336.927 221.224 336.877 221.467 336.852 221.727H340.489V221.735Z" fill="#27272A"/>
<path d="M343.17 225.129C343.061 225.037 343.011 224.911 343.011 224.744V219.657C343.011 219.49 343.069 219.364 343.178 219.28C343.287 219.188 343.421 219.146 343.572 219.146C343.723 219.146 343.857 219.188 343.966 219.28C344.075 219.372 344.134 219.49 344.134 219.649L344.125 220.386C344.226 220.001 344.435 219.682 344.745 219.431C345.055 219.171 345.433 219.045 345.868 219.045C346.002 219.045 346.103 219.096 346.178 219.196C346.254 219.297 346.296 219.414 346.296 219.54C346.296 219.666 346.262 219.766 346.187 219.858C346.12 219.95 346.019 219.992 345.885 219.992C345.332 219.992 344.896 220.135 344.595 220.428C344.284 220.713 344.134 221.099 344.134 221.585V224.761C344.134 224.928 344.075 225.054 343.966 225.146C343.849 225.238 343.723 225.28 343.564 225.28C343.405 225.263 343.279 225.221 343.17 225.129Z" fill="#27272A"/>
<path d="M351.416 225.079C351.29 224.962 351.231 224.819 351.231 224.66V217.051C351.231 216.892 351.29 216.749 351.399 216.632C351.508 216.515 351.65 216.448 351.818 216.448H356.394C356.553 216.448 356.67 216.498 356.754 216.59C356.838 216.691 356.88 216.8 356.88 216.942C356.88 217.076 356.838 217.194 356.754 217.294C356.67 217.395 356.544 217.445 356.394 217.445H352.48V220.252H356.184C356.343 220.252 356.469 220.303 356.553 220.395C356.637 220.487 356.678 220.604 356.678 220.73C356.678 220.864 356.637 220.973 356.544 221.074C356.452 221.174 356.335 221.216 356.176 221.216H352.472V224.266H356.544C356.704 224.266 356.821 224.317 356.905 224.417C356.988 224.518 357.03 224.635 357.03 224.769C357.03 224.903 356.988 225.02 356.905 225.121C356.821 225.222 356.695 225.264 356.544 225.264H351.843C351.684 225.264 351.542 225.205 351.416 225.079Z" fill="#27272A"/>
<path d="M358.899 225.129C358.791 225.037 358.74 224.911 358.74 224.744V219.657C358.74 219.49 358.799 219.364 358.908 219.28C359.017 219.188 359.151 219.146 359.302 219.146C359.453 219.146 359.587 219.188 359.696 219.28C359.805 219.372 359.863 219.49 359.863 219.649L359.855 220.386C359.955 220.001 360.165 219.682 360.475 219.431C360.785 219.171 361.162 219.045 361.598 219.045C361.732 219.045 361.832 219.096 361.908 219.196C361.983 219.297 362.025 219.414 362.025 219.54C362.025 219.666 361.992 219.766 361.916 219.858C361.849 219.95 361.749 219.992 361.615 219.992C361.061 219.992 360.626 220.135 360.324 220.428C360.014 220.713 359.863 221.099 359.863 221.585V224.761C359.863 224.928 359.805 225.054 359.696 225.146C359.587 225.238 359.453 225.28 359.302 225.28C359.134 225.263 359.008 225.221 358.899 225.129Z" fill="#27272A"/>
<path d="M363.391 225.129C363.282 225.037 363.231 224.911 363.231 224.744V219.657C363.231 219.49 363.29 219.364 363.399 219.28C363.508 219.188 363.642 219.146 363.793 219.146C363.944 219.146 364.078 219.188 364.187 219.28C364.296 219.372 364.354 219.49 364.354 219.649L364.346 220.386C364.447 220.001 364.656 219.682 364.966 219.431C365.276 219.171 365.653 219.045 366.089 219.045C366.223 219.045 366.324 219.096 366.399 219.196C366.475 219.297 366.516 219.414 366.516 219.54C366.516 219.666 366.483 219.766 366.407 219.858C366.34 219.95 366.24 219.992 366.106 219.992C365.553 219.992 365.117 220.135 364.815 220.428C364.514 220.721 364.354 221.099 364.354 221.585V224.761C364.354 224.928 364.296 225.054 364.187 225.146C364.078 225.238 363.944 225.28 363.793 225.28C363.625 225.263 363.5 225.221 363.391 225.129Z" fill="#27272A"/>
<path d="M368.126 224.475C367.565 223.88 367.288 223.118 367.288 222.196C367.288 221.266 367.565 220.503 368.126 219.908C368.688 219.313 369.433 219.012 370.38 219.012C371.327 219.012 372.081 219.305 372.635 219.9C373.196 220.495 373.473 221.258 373.473 222.196C373.473 223.118 373.196 223.88 372.643 224.475C372.09 225.07 371.336 225.372 370.389 225.372C369.442 225.372 368.688 225.079 368.126 224.475ZM371.847 223.964C372.19 223.537 372.366 222.942 372.366 222.196C372.366 221.45 372.19 220.864 371.838 220.428C371.486 219.992 371 219.774 370.389 219.774C369.769 219.774 369.283 219.992 368.931 220.428C368.579 220.864 368.403 221.45 368.403 222.204C368.403 222.942 368.579 223.529 368.922 223.964C369.266 224.4 369.752 224.618 370.372 224.618C371.009 224.61 371.495 224.392 371.847 223.964Z" fill="#27272A"/>
<path d="M375.03 225.129C374.921 225.037 374.871 224.911 374.871 224.744V219.657C374.871 219.49 374.93 219.364 375.039 219.28C375.148 219.188 375.282 219.146 375.433 219.146C375.583 219.146 375.717 219.188 375.826 219.28C375.935 219.372 375.994 219.49 375.994 219.649L375.986 220.386C376.086 220.001 376.296 219.682 376.606 219.431C376.916 219.171 377.293 219.045 377.729 219.045C377.863 219.045 377.963 219.096 378.039 219.196C378.114 219.297 378.156 219.414 378.156 219.54C378.156 219.666 378.123 219.766 378.047 219.858C377.98 219.95 377.88 219.992 377.745 219.992C377.192 219.992 376.757 220.135 376.455 220.428C376.145 220.713 375.994 221.099 375.994 221.585V224.761C375.994 224.928 375.935 225.054 375.826 225.146C375.709 225.238 375.583 225.28 375.433 225.28C375.265 225.263 375.139 225.221 375.03 225.129Z" fill="#27272A"/>
<path d="M265.479 197.031C264.8 196.419 264.465 195.648 264.465 194.726C264.465 193.763 264.817 192.874 265.529 192.061C266.241 191.249 267.029 190.846 267.917 190.846C268.202 190.846 268.496 190.897 268.781 190.997C269.065 191.098 269.342 191.257 269.61 191.458C272.376 193.612 275.334 194.684 278.468 194.684C280.864 194.684 282.716 194.056 284.007 192.79C285.298 191.533 285.943 189.665 285.943 187.209C285.943 184.855 285.247 183.011 283.865 181.687C282.482 180.363 280.739 179.701 278.652 179.701C276.255 179.701 273.934 180.539 271.697 182.223C271.286 182.575 270.708 182.743 269.971 182.743C268.839 182.743 267.792 182.366 266.836 181.603C265.873 180.841 265.387 179.818 265.387 178.528V161.064C265.387 159.321 265.806 158.131 266.652 157.494C267.49 156.857 268.898 156.539 270.867 156.539H289.387C290.393 156.539 291.197 156.849 291.8 157.46C292.404 158.072 292.705 158.918 292.705 159.983C292.705 161.047 292.387 161.885 291.75 162.488C291.113 163.092 290.225 163.393 289.077 163.393H273.23L273.079 175.117L274.001 174.564C274.613 174.195 275.627 173.827 277.043 173.458C278.459 173.089 279.959 172.905 281.535 172.905C285.557 172.905 288.834 174.17 291.365 176.692C293.895 179.215 295.161 182.676 295.161 187.059C295.161 190.033 294.432 192.648 292.974 194.902C291.515 197.156 289.546 198.874 287.066 200.039C284.585 201.212 281.795 201.791 278.694 201.791C273.658 201.799 269.25 200.215 265.479 197.031Z" fill="#3F3F46"/>
<path d="M310.966 200.751C308.988 199.93 307.354 198.816 306.072 197.416C304.79 196.008 303.726 194.316 302.888 192.321C302.05 190.335 301.455 188.232 301.103 186.028C300.751 183.824 300.583 181.436 300.583 178.871C300.583 176.349 300.759 174.002 301.103 171.824C301.446 169.653 302.041 167.567 302.871 165.581C303.7 163.595 304.756 161.902 306.022 160.502C307.295 159.111 308.921 157.997 310.916 157.167C312.902 156.337 315.164 155.918 317.687 155.918C320.167 155.918 322.388 156.321 324.349 157.134C326.31 157.946 327.927 159.044 329.209 160.427C330.491 161.81 331.555 163.494 332.41 165.472C333.257 167.449 333.868 169.536 334.229 171.732C334.589 173.927 334.765 176.307 334.765 178.871C334.765 181.419 334.589 183.79 334.245 185.994C333.893 188.198 333.299 190.293 332.461 192.288C331.623 194.274 330.558 195.975 329.276 197.383C327.994 198.791 326.368 199.905 324.399 200.735C322.43 201.564 320.192 201.983 317.695 201.983C315.181 201.983 312.943 201.573 310.966 200.751ZM321.499 193.603C322.522 192.79 323.293 191.609 323.796 190.05C324.298 188.492 324.65 186.841 324.843 185.098C325.036 183.355 325.136 181.285 325.136 178.88C325.136 176.994 325.086 175.335 324.986 173.91C324.885 172.486 324.676 171.061 324.357 169.637C324.039 168.212 323.611 167.039 323.083 166.125C322.547 165.212 321.835 164.474 320.93 163.913C320.025 163.352 318.952 163.067 317.703 163.067C316.656 163.067 315.734 163.251 314.938 163.62C314.142 163.988 313.471 164.541 312.935 165.262C312.399 165.991 311.955 166.812 311.594 167.726C311.234 168.639 310.957 169.72 310.765 170.969C310.572 172.218 310.438 173.458 310.362 174.69C310.287 175.922 310.254 177.313 310.254 178.871C310.254 180.43 310.287 181.829 310.362 183.07C310.429 184.31 310.564 185.559 310.765 186.824C310.957 188.081 311.234 189.179 311.594 190.1C311.955 191.022 312.399 191.852 312.935 192.581C313.471 193.31 314.133 193.863 314.938 194.24C315.734 194.617 316.664 194.81 317.703 194.81C319.203 194.818 320.477 194.408 321.499 193.603Z" fill="#3F3F46"/>
<path d="M349.916 200.751C347.938 199.93 346.304 198.816 345.022 197.416C343.74 196.008 342.676 194.316 341.838 192.321C341 190.335 340.405 188.232 340.053 186.028C339.701 183.824 339.533 181.436 339.533 178.871C339.533 176.349 339.709 174.002 340.053 171.824C340.396 169.653 340.991 167.567 341.821 165.581C342.651 163.595 343.706 161.902 344.972 160.502C346.246 159.111 347.871 157.997 349.866 157.167C351.852 156.337 354.114 155.918 356.637 155.918C359.117 155.918 361.338 156.321 363.299 157.134C365.26 157.946 366.877 159.044 368.159 160.427C369.441 161.81 370.506 163.494 371.36 165.472C372.207 167.449 372.819 169.536 373.179 171.732C373.539 173.927 373.715 176.307 373.715 178.871C373.715 181.419 373.539 183.79 373.196 185.994C372.844 188.198 372.249 190.293 371.411 192.288C370.573 194.274 369.508 195.975 368.226 197.383C366.944 198.791 365.318 199.905 363.349 200.735C361.38 201.564 359.142 201.983 356.645 201.983C354.14 201.983 351.894 201.573 349.916 200.751ZM360.458 193.603C361.48 192.79 362.251 191.609 362.754 190.05C363.257 188.492 363.609 186.841 363.802 185.098C363.994 183.355 364.095 181.285 364.095 178.88C364.095 176.994 364.045 175.335 363.944 173.91C363.844 172.486 363.634 171.061 363.316 169.637C362.997 168.212 362.57 167.039 362.042 166.125C361.506 165.212 360.793 164.474 359.888 163.913C358.983 163.352 357.911 163.067 356.662 163.067C355.614 163.067 354.693 163.251 353.897 163.62C353.1 163.988 352.43 164.541 351.894 165.262C351.357 165.991 350.913 166.812 350.553 167.726C350.193 168.639 349.916 169.72 349.723 170.969C349.531 172.218 349.396 173.458 349.321 174.69C349.246 175.922 349.212 177.313 349.212 178.871C349.212 180.43 349.246 181.829 349.321 183.07C349.388 184.31 349.522 185.559 349.723 186.824C349.916 188.081 350.193 189.179 350.553 190.1C350.913 191.022 351.357 191.852 351.894 192.581C352.43 193.31 353.092 193.863 353.897 194.24C354.693 194.617 355.623 194.81 356.662 194.81C358.154 194.818 359.427 194.408 360.458 193.603Z" fill="#3F3F46"/>
<path d="M128.223 283.697C128.223 283.697 136.2 282.113 143.039 287.384C149.885 292.647 155.089 306.029 157.779 324.767C160.469 343.496 161.994 351.617 177.782 354.248C193.578 356.879 231.481 355.823 254.124 355.304C276.767 354.776 275.711 333.717 256.755 331.614C237.8 329.51 224.685 334.563 204.916 330.197C185.148 325.823 222.531 320.032 250.956 324.248C279.389 328.463 292.027 329.51 307.295 327.935" stroke="#27272A" stroke-width="2.5131" stroke-miterlimit="10" stroke-linecap="round" stroke-linejoin="round"/>
<path d="M128.223 255.674C128.223 255.674 143.566 255.8 147.782 271.596C151.997 287.392 153.572 309.507 154.1 326.879C154.628 344.25 155.156 358.991 175.159 363.206C195.162 367.421 249.397 365.837 264.138 362.678C278.878 359.519 295.203 345.306 283.093 342.147C270.984 338.988 254.141 342.147 260.451 346.362C266.769 350.577 283.613 349.521 303.624 346.89" stroke="#27272A" stroke-width="2.5131" stroke-miterlimit="10" stroke-linecap="round" stroke-linejoin="round"/>
<path d="M131.365 310.638C131.365 310.638 140.742 309.826 144.404 320.418C148.074 331.019 143.591 333.457 145.627 338.762C147.664 344.066 160.527 339.114 160.468 343.505C160.418 347.51 155.332 348.642 126.069 346.915C87.8055 344.661 62.4895 350.586 64.5258 354.248C66.5622 357.918 97.1324 355.061 89.7915 360.768C82.4507 366.474 64.5258 359.955 50.6653 359.544C36.8048 359.133 34.3662 362.393 34.3662 362.393" stroke="#27272A" stroke-width="2.5131" stroke-miterlimit="10" stroke-linecap="round" stroke-linejoin="round"/>
<path d="M132.504 160.93H40.3661C38.7152 160.93 37.3828 162.262 37.3828 163.913V338.452C37.3828 340.102 38.7152 341.435 40.3661 341.435H132.504C134.155 341.435 135.487 340.102 135.487 338.452V163.913C135.487 162.27 134.147 160.93 132.504 160.93Z" fill="#1D120E" stroke="#1D120E" stroke-width="1.2565" stroke-miterlimit="10" stroke-linecap="round" stroke-linejoin="round"/>
<path d="M133.091 187.972H39.7295V257.116H133.091V187.972Z" fill="#F4F4F5"/>
<path d="M133.091 268.353H39.7295V337.496H133.091V268.353Z" fill="#F4F4F5"/>
<path d="M121.509 276.775H68.5059V330.826H121.509V276.775Z" fill="#71717A" stroke="#1D120E" stroke-width="1.2565" stroke-miterlimit="10" stroke-linecap="round" stroke-linejoin="round"/>
<path d="M121.509 195.698H68.5059V209.039H121.509V195.698Z" fill="#71717A" stroke="#1D120E" stroke-width="1.2565" stroke-miterlimit="10" stroke-linecap="round" stroke-linejoin="round"/>
<path d="M121.509 221.316H68.5059V234.657H121.509V221.316Z" fill="#71717A" stroke="#1D120E" stroke-width="1.2565" stroke-miterlimit="10" stroke-linecap="round" stroke-linejoin="round"/>
<path d="M119.733 189.522L118.711 192.33H71.7575L70.7351 189.522H60.7881V201.858H70.7351L71.7575 199.051H118.711L119.733 201.858H130.996V189.522H119.733Z" fill="#1D120E" stroke="#1D120E" stroke-width="1.2565" stroke-miterlimit="10" stroke-linecap="round" stroke-linejoin="round"/>
<path d="M119.733 202.98L118.711 205.779H71.7575L70.7351 202.98H60.7881V215.307H70.7351L71.7575 212.509H118.711L119.733 215.307H130.996V202.98H119.733Z" fill="#1D120E" stroke="#1D120E" stroke-width="1.2565" stroke-miterlimit="10" stroke-linecap="round" stroke-linejoin="round"/>
<path d="M119.733 216.431L118.711 219.23H71.7575L70.7351 216.431H60.7881V228.766H70.7351L71.7575 225.959H118.711L119.733 228.766H130.996V216.431H119.733Z" fill="#1D120E" stroke="#1D120E" stroke-width="1.2565" stroke-miterlimit="10" stroke-linecap="round" stroke-linejoin="round"/>
<path d="M119.733 229.889L118.711 232.688H71.7575L70.7351 229.889H60.7881V242.216H70.7351L71.7575 239.417H118.711L119.733 242.216H130.996V229.889H119.733Z" fill="#1D120E" stroke="#1D120E" stroke-width="1.2565" stroke-miterlimit="10" stroke-linecap="round" stroke-linejoin="round"/>
<path d="M119.733 243.338L118.711 246.137H71.7575L70.7351 243.338H60.7881V255.674H70.7351L71.7575 252.866H118.711L119.733 255.674H130.996V243.338H119.733Z" fill="#1D120E" stroke="#1D120E" stroke-width="1.2565" stroke-miterlimit="10" stroke-linecap="round" stroke-linejoin="round"/>
<path d="M119.733 270.247L118.711 273.045H71.7575L70.7351 270.247H60.7881V282.582H70.7351L71.7575 279.775H118.711L119.733 282.582H130.996V270.247H119.733Z" fill="#1D120E" stroke="#1D120E" stroke-width="1.2565" stroke-miterlimit="10" stroke-linecap="round" stroke-linejoin="round"/>
<path d="M119.733 283.697L118.711 286.504H71.7575L70.7351 283.697H60.7881V296.032H70.7351L71.7575 293.233H118.711L119.733 296.032H130.996V283.697H119.733Z" fill="#1D120E" stroke="#1D120E" stroke-width="1.2565" stroke-miterlimit="10" stroke-linecap="round" stroke-linejoin="round"/>
<path d="M119.733 297.155L118.711 299.954H71.7575L70.7351 297.155H60.7881V309.482H70.7351L71.7575 306.683H118.711L119.733 309.482H130.996V297.155H119.733Z" fill="#1D120E" stroke="#1D120E" stroke-width="1.2565" stroke-miterlimit="10" stroke-linecap="round" stroke-linejoin="round"/>
<path d="M119.733 310.605L118.711 313.412H71.7575L70.7351 310.605H60.7881V322.94H70.7351L71.7575 320.133H118.711L119.733 322.94H130.996V310.605H119.733Z" fill="#1D120E" stroke="#1D120E" stroke-width="1.2565" stroke-miterlimit="10" stroke-linecap="round" stroke-linejoin="round"/>
<path d="M119.733 324.063L118.711 326.862H71.7575L70.7351 324.063H60.7881V336.39H70.7351L71.7575 333.591H118.711L119.733 336.39H130.996V324.063H119.733Z" fill="#1D120E" stroke="#1D120E" stroke-width="1.2565" stroke-miterlimit="10" stroke-linecap="round" stroke-linejoin="round"/>
<path d="M130.979 259.269H41.6064V267.691H130.979V259.269Z" fill="white"/>
<path d="M49.148 263.392C49.148 262.093 48.0922 261.037 46.7933 261.037C45.4944 261.037 44.4385 262.093 44.4385 263.392C44.4385 264.691 45.4944 265.747 46.7933 265.747C48.0922 265.747 49.148 264.691 49.148 263.392Z" fill="#1D120E" stroke="#1D120E" stroke-width="1.2565" stroke-miterlimit="10" stroke-linecap="round" stroke-linejoin="round"/>
<path d="M54.637 265.747C55.9375 265.747 56.9918 264.692 56.9918 263.392C56.9918 262.091 55.9375 261.037 54.637 261.037C53.3365 261.037 52.2822 262.091 52.2822 263.392C52.2822 264.692 53.3365 265.747 54.637 265.747Z" fill="#71717A" stroke="#1D120E" stroke-width="1.2565" stroke-miterlimit="10" stroke-linecap="round" stroke-linejoin="round"/>
<path d="M64.8355 263.392C64.8355 262.093 63.7797 261.037 62.4808 261.037C61.1819 261.037 60.126 262.093 60.126 263.392C60.126 264.691 61.1819 265.747 62.4808 265.747C63.7797 265.747 64.8355 264.691 64.8355 263.392Z" fill="#1D120E" stroke="#1D120E" stroke-width="1.2565" stroke-miterlimit="10" stroke-linecap="round" stroke-linejoin="round"/>
<path d="M130.979 178.544H41.6064V186.966H130.979V178.544Z" fill="white"/>
<path d="M49.148 182.659C49.148 181.36 48.0922 180.304 46.7933 180.304C45.4944 180.304 44.4385 181.36 44.4385 182.659C44.4385 183.958 45.4944 185.014 46.7933 185.014C48.0922 185.014 49.148 183.966 49.148 182.659Z" fill="white" stroke="#1D120E" stroke-width="1.2565" stroke-miterlimit="10" stroke-linecap="round" stroke-linejoin="round"/>
<path d="M56.9918 182.659C56.9918 181.36 55.9359 180.304 54.637 180.304C53.3381 180.304 52.2822 181.36 52.2822 182.659C52.2822 183.958 53.3381 185.014 54.637 185.014C55.9359 185.014 56.9918 183.966 56.9918 182.659Z" fill="#71717A" stroke="#1D120E" stroke-width="1.2565" stroke-miterlimit="10" stroke-linecap="round" stroke-linejoin="round"/>
<path d="M64.8355 182.659C64.8355 181.36 63.7797 180.304 62.4808 180.304C61.1819 180.304 60.126 181.36 60.126 182.659C60.126 183.958 61.1819 185.014 62.4808 185.014C63.7797 185.014 64.8355 183.966 64.8355 182.659Z" fill="white" stroke="#1D120E" stroke-width="1.2565" stroke-miterlimit="10" stroke-linecap="round" stroke-linejoin="round"/>
<path d="M130.979 167.709H41.6064V176.131H130.979V167.709Z" fill="white"/>
<path d="M49.148 171.832C49.148 170.533 48.0922 169.478 46.7933 169.478C45.4944 169.478 44.4385 170.533 44.4385 171.832C44.4385 173.131 45.4944 174.187 46.7933 174.187C48.0922 174.187 49.148 173.131 49.148 171.832Z" fill="#71717A" stroke="#1D120E" stroke-width="1.2565" stroke-miterlimit="10" stroke-linecap="round" stroke-linejoin="round"/>
<path d="M56.9918 171.832C56.9918 170.533 55.9359 169.478 54.637 169.478C53.3381 169.478 52.2822 170.533 52.2822 171.832C52.2822 173.131 53.3381 174.187 54.637 174.187C55.9359 174.187 56.9918 173.131 56.9918 171.832Z" fill="#1D120E" stroke="#1D120E" stroke-width="1.2565" stroke-miterlimit="10" stroke-linecap="round" stroke-linejoin="round"/>
<path d="M64.8355 171.832C64.8355 170.533 63.7797 169.478 62.4808 169.478C61.1819 169.478 60.126 170.533 60.126 171.832C60.126 173.131 61.1819 174.187 62.4808 174.187C63.7797 174.187 64.8355 173.131 64.8355 171.832Z" fill="#1D120E" stroke="#1D120E" stroke-width="1.2565" stroke-miterlimit="10" stroke-linecap="round" stroke-linejoin="round"/>
<path d="M56.5734 189.732H41.833V196.05H56.5734V189.732Z" fill="#1D120E" stroke="#1D120E" stroke-width="1.2565" stroke-miterlimit="10" stroke-linecap="round" stroke-linejoin="round"/>
<path d="M56.5734 203.417H41.833V209.735H56.5734V203.417Z" fill="#1D120E" stroke="#1D120E" stroke-width="1.2565" stroke-miterlimit="10" stroke-linecap="round" stroke-linejoin="round"/>
<path d="M56.5734 217.109H41.833V223.428H56.5734V217.109Z" fill="#71717A" stroke="#1D120E" stroke-width="1.2565" stroke-miterlimit="10" stroke-linecap="round" stroke-linejoin="round"/>
<path d="M56.5734 230.794H41.833V237.112H56.5734V230.794Z" fill="#71717A" stroke="#1D120E" stroke-width="1.2565" stroke-miterlimit="10" stroke-linecap="round" stroke-linejoin="round"/>
<path d="M56.5734 244.487H41.833V250.805H56.5734V244.487Z" fill="#71717A" stroke="#1D120E" stroke-width="1.2565" stroke-miterlimit="10" stroke-linecap="round" stroke-linejoin="round"/>
<path d="M56.5734 270.104H41.833V276.423H56.5734V270.104Z" fill="#71717A" stroke="#1D120E" stroke-width="1.2565" stroke-miterlimit="10" stroke-linecap="round" stroke-linejoin="round"/>
<path d="M56.5734 283.797H41.833V290.116H56.5734V283.797Z" fill="#1D120E" stroke="#1D120E" stroke-width="1.2565" stroke-miterlimit="10" stroke-linecap="round" stroke-linejoin="round"/>
<path d="M56.5734 297.482H41.833V303.8H56.5734V297.482Z" fill="#71717A" stroke="#1D120E" stroke-width="1.2565" stroke-miterlimit="10" stroke-linecap="round" stroke-linejoin="round"/>
<path d="M56.5734 311.175H41.833V317.493H56.5734V311.175Z" fill="#1D120E" stroke="#1D120E" stroke-width="1.2565" stroke-miterlimit="10" stroke-linecap="round" stroke-linejoin="round"/>
<path d="M56.5734 324.859H41.833V331.178H56.5734V324.859Z" fill="#71717A" stroke="#1D120E" stroke-width="1.2565" stroke-miterlimit="10" stroke-linecap="round" stroke-linejoin="round"/>
<path d="M180.036 122.649C180.036 122.649 165.916 126.244 161.994 131.616C158.072 136.979 142.175 173.516 142.175 173.516C142.175 173.516 137.013 179.298 142.586 184.871C148.159 190.444 159.304 192.505 163.435 187.553C167.567 182.6 173.55 159.27 174.371 156.588C175.201 153.907 181.385 131.197 182.005 129.957C182.626 128.725 183.221 123.387 180.036 122.649Z" fill="#F4F4F5" stroke="#1D120E" stroke-width="1.2565" stroke-miterlimit="10" stroke-linecap="round" stroke-linejoin="round"/>
<path d="M180.037 122.649C180.037 122.649 165.916 126.244 161.995 131.616C159.623 134.867 152.86 149.524 147.899 160.594C150.313 160.108 160.369 158.616 172.143 164.549C173.282 160.594 174.112 157.468 174.38 156.588C175.21 153.907 181.394 131.197 182.014 129.965C182.626 128.725 183.221 123.387 180.037 122.649Z" fill="#FFCBD0" stroke="#1D120E" stroke-width="1.2565" stroke-miterlimit="10" stroke-linecap="round" stroke-linejoin="round"/>
<path d="M221.434 75.0593C221.434 75.0593 225.356 77.1207 227.007 81.0426C228.658 84.9644 228.658 90.9477 228.658 90.9477C228.658 90.9477 255.08 90.1181 265.194 89.917C275.309 89.7075 282.122 92.188 282.323 97.1406C282.533 102.093 280.262 111.797 274.689 115.51C269.116 119.222 251.778 113.239 242.904 110.758C234.029 108.278 230.929 109.107 224.535 108.278C218.132 107.448 216.28 104.976 215.25 101.054C214.219 97.1322 216.28 89.6991 216.28 83.7158C216.272 77.7409 215.451 73.819 221.434 75.0593Z" fill="#F4F4F5" stroke="#1D120E" stroke-width="1.2565" stroke-miterlimit="10" stroke-linecap="round" stroke-linejoin="round"/>
<path d="M260.031 100.442C260.031 100.442 256.319 109.937 249.506 115.099C244.621 118.803 238.025 120.915 234.699 121.803C222.799 118.468 205.98 116.876 196.151 119.063C196.151 119.063 182.416 122.348 180.036 122.641C177.648 122.943 171.974 142.041 170.784 155.181C169.594 168.312 173.474 200.852 173.474 203.24C173.474 205.628 174.966 245.324 177.354 256.369C179.743 267.414 182.433 282.339 182.726 284.425C183.028 286.512 185.114 302.04 185.114 307.11C185.114 312.18 182.726 324.423 182.726 324.423C182.726 324.423 171.983 331.588 167.801 335.77C163.619 339.951 170.877 344.342 176.156 345.323C185.164 346.99 195.857 338.158 195.857 338.158C195.857 338.158 207.665 333.44 207.799 333.381C210.975 332.107 211.913 328.697 211.997 325.638C212.182 318.272 212.366 310.906 212.559 303.54C214.436 311.367 215.978 319.286 217.176 327.247C217.67 330.515 218.165 333.943 220.143 336.591C221.14 337.932 222.749 339.557 224.282 340.27C225.472 340.823 226.738 340.705 227.928 341.393C230.132 342.666 231.037 345.415 233.182 346.798C237.389 349.504 243.464 350.895 248.4 350.703C248.4 350.703 260.341 351.298 260.936 344.736C261.531 338.166 245.417 327.423 245.417 327.423C245.417 327.423 243.028 283.839 241.235 269.517C239.442 255.187 234.665 231.908 234.665 221.76C234.665 211.611 239.442 163.854 239.442 163.854C239.442 163.854 239.928 162.597 240.674 160.544C240.933 160.401 241.193 160.259 241.461 160.108C248.274 156.186 267.263 140.909 273.456 131.214C279.381 121.929 281.526 104.507 281.702 99.4116" fill="#F4F4F5"/>
<path d="M260.031 100.442C260.031 100.442 256.319 109.937 249.506 115.099C244.621 118.803 238.025 120.915 234.699 121.803C222.799 118.468 205.98 116.876 196.151 119.063C196.151 119.063 182.416 122.348 180.036 122.641C177.648 122.943 171.974 142.041 170.784 155.181C169.594 168.312 173.474 200.852 173.474 203.24C173.474 205.628 174.966 245.324 177.354 256.369C179.743 267.414 182.433 282.339 182.726 284.425C183.028 286.512 185.114 302.04 185.114 307.11C185.114 312.18 182.726 324.423 182.726 324.423C182.726 324.423 171.983 331.588 167.801 335.77C163.619 339.951 170.877 344.342 176.156 345.323C185.164 346.99 195.857 338.158 195.857 338.158C195.857 338.158 207.665 333.44 207.799 333.381C210.975 332.107 211.913 328.697 211.997 325.638C212.182 318.272 212.366 310.906 212.559 303.54C214.436 311.367 215.978 319.286 217.176 327.247C217.67 330.515 218.165 333.943 220.143 336.591C221.14 337.932 222.749 339.557 224.282 340.27C225.472 340.823 226.738 340.705 227.928 341.393C230.132 342.666 231.037 345.415 233.182 346.798C237.389 349.504 243.464 350.895 248.4 350.703C248.4 350.703 260.341 351.298 260.936 344.736C261.531 338.166 245.417 327.423 245.417 327.423C245.417 327.423 243.028 283.839 241.235 269.517C239.442 255.187 234.665 231.908 234.665 221.76C234.665 211.611 239.442 163.854 239.442 163.854C239.442 163.854 239.928 162.597 240.674 160.544C240.933 160.401 241.193 160.259 241.461 160.108C248.274 156.186 267.263 140.909 273.456 131.214C279.381 121.929 281.526 104.507 281.702 99.4116" stroke="#1D120E" stroke-width="1.2565" stroke-miterlimit="10" stroke-linecap="round" stroke-linejoin="round"/>
<path d="M260.928 344.728C261.523 338.158 245.408 327.415 245.408 327.415C245.408 327.415 245.224 324.054 244.922 318.909C234.816 321.365 225.12 322.253 216.363 322.244C216.648 323.912 216.916 325.58 217.176 327.247C217.671 330.515 218.165 333.943 220.143 336.591C221.14 337.932 222.749 339.557 224.282 340.27C225.472 340.823 226.738 340.706 227.928 341.393C230.132 342.666 231.037 345.415 233.182 346.798C237.389 349.505 243.464 350.896 248.4 350.703C248.392 350.695 260.325 351.298 260.928 344.728Z" fill="#FFCBD0" stroke="#1D120E" stroke-width="1.2565" stroke-miterlimit="10" stroke-linecap="round" stroke-linejoin="round"/>
<path d="M207.791 333.39C210.967 332.116 211.906 328.705 211.989 325.647C212.015 324.49 212.048 323.334 212.073 322.177C200.056 321.767 190.143 319.772 183.841 318.138C183.271 321.624 182.718 324.432 182.718 324.432C182.718 324.432 171.975 331.596 167.793 335.778C163.612 339.96 170.869 344.351 176.148 345.331C185.157 346.999 195.85 338.166 195.85 338.166C195.85 338.166 207.657 333.44 207.791 333.39Z" fill="#FFCBD0" stroke="#1D120E" stroke-width="1.2565" stroke-miterlimit="10" stroke-linecap="round" stroke-linejoin="round"/>
<path d="M260.928 344.728C260.937 344.636 260.928 344.535 260.928 344.434C259.085 345.826 256.252 347.284 252.037 348.038C242.601 349.714 234.012 344.895 231.699 342.8C229.394 340.705 227.928 339.029 224.358 336.725C220.797 334.42 217.562 328.747 217.562 328.747L217.428 328.957C217.872 331.68 218.492 334.412 220.126 336.599C221.123 337.94 222.732 339.566 224.266 340.278C225.456 340.831 226.721 340.714 227.911 341.401C230.115 342.675 231.02 345.423 233.165 346.806C237.372 349.513 243.448 350.904 248.383 350.711C248.392 350.694 260.325 351.298 260.928 344.728Z" fill="white" stroke="#1D120E" stroke-width="1.2565" stroke-miterlimit="10" stroke-linecap="round" stroke-linejoin="round"/>
<path d="M207.791 333.39C210.565 332.283 211.629 329.543 211.906 326.836C209.166 328.471 202.805 332.174 198.783 333.783C193.545 335.878 189.975 342.172 179.702 342.172C172.377 342.172 168.372 339.298 166.662 337.647C165.757 341.191 171.648 344.493 176.148 345.331C185.157 346.999 195.85 338.166 195.85 338.166C195.85 338.166 207.657 333.44 207.791 333.39Z" fill="white" stroke="#1D120E" stroke-width="1.2565" stroke-miterlimit="10" stroke-linecap="round" stroke-linejoin="round"/>
<path d="M246.565 117.043C242.224 119.566 237.389 121.083 234.69 121.812C222.791 118.476 205.972 116.884 196.142 119.071C196.142 119.071 182.407 122.356 180.028 122.65C177.639 122.951 171.966 142.049 170.776 155.189C170.039 163.293 171.237 178.787 172.259 190.025C197.131 199.142 223.662 196.017 236.634 193.528C237.95 178.653 239.425 163.846 239.425 163.846C239.425 163.846 239.911 162.589 240.657 160.536C240.917 160.393 241.176 160.251 241.445 160.1C246.07 157.435 256.319 149.533 264.356 141.697C248.232 137.013 246.28 124.292 246.565 117.043Z" fill="#FFCBD0" stroke="#1D120E" stroke-width="1.2565" stroke-miterlimit="10" stroke-linecap="round" stroke-linejoin="round"/>
<path d="M223.436 131.281C223.436 126.194 220.797 121.636 216.649 118.544C209.023 117.806 201.539 117.865 196.151 119.063C196.151 119.063 192.355 119.968 188.408 120.873C185.785 123.739 184.201 127.351 184.201 131.281C184.201 140.591 192.983 148.142 203.819 148.142C214.654 148.142 223.436 140.591 223.436 131.281Z" fill="#3F3F46" stroke="#1D120E" stroke-width="1.2565" stroke-miterlimit="10" stroke-linecap="round" stroke-linejoin="round"/>
<path d="M217.562 328.739C220.117 329.694 224.886 330.984 231.523 330.7C241.822 330.255 245.4 327.415 245.4 327.415C245.4 327.415 243.012 283.83 241.218 269.509C239.425 255.179 234.648 231.899 234.648 221.751C234.648 215.768 236.308 196.728 237.674 182.089C237.464 182.114 237.246 182.139 237.037 182.164C229.746 183.002 223.411 177.195 223.629 169.862L223.914 160.334C223.914 160.334 214.511 161.231 200.634 159.664C186.757 158.097 172.427 153.396 172.427 153.396L170.919 153.856C170.868 154.301 170.826 154.745 170.784 155.18C169.594 168.312 173.474 200.851 173.474 203.24C173.474 205.628 174.966 245.324 177.354 256.369C179.743 267.414 182.433 282.339 182.726 284.425C183.028 286.512 185.114 302.04 185.114 307.11C185.114 312.096 182.81 323.97 182.726 324.406C184.519 324.959 188.273 326.099 195.036 328.01C205.335 330.917 211.972 327.415 211.972 327.415C211.972 323.836 212.567 303.532 212.567 303.532C212.567 303.532 216.338 320.711 217.562 328.739Z" fill="white" stroke="#1D120E" stroke-width="1.2565" stroke-miterlimit="10" stroke-linecap="round" stroke-linejoin="round"/>
<path d="M183.463 165.965L210.271 170.373V186.907L195.212 201.966L183.095 187.267L183.463 165.965Z" stroke="#1D120E" stroke-width="1.2565" stroke-miterlimit="10" stroke-linecap="round" stroke-linejoin="round"/>
<path d="M202.813 258.891C200.877 247.981 199.436 237.229 199.436 229.503L188.692 222.338" stroke="#1D120E" stroke-width="1.2565" stroke-miterlimit="10" stroke-linecap="round" stroke-linejoin="round"/>
<path d="M212.567 303.54C212.567 303.54 208.042 286.051 204.305 266.903" stroke="#1D120E" stroke-width="1.2565" stroke-miterlimit="10" stroke-linecap="round" stroke-linejoin="round"/>
<path d="M220.554 210.949C220.788 211.854 221.14 212.785 221.668 213.715C224.97 219.589 229.747 220.327 229.747 220.327L230.484 204.899" stroke="#1D120E" stroke-width="1.2565" stroke-miterlimit="10" stroke-linecap="round" stroke-linejoin="round"/>
<path d="M221.659 201.966C221.659 201.966 220.872 203.374 220.444 205.494" stroke="#1D120E" stroke-width="1.2565" stroke-miterlimit="10" stroke-linecap="round" stroke-linejoin="round"/>
<path d="M234.824 248.902C235.21 250.939 235.604 252.942 235.981 254.852" stroke="#1D120E" stroke-width="1.2565" stroke-miterlimit="10" stroke-linecap="round" stroke-linejoin="round"/>
<path d="M229.737 220.327C229.737 220.327 231.623 231.648 233.81 243.514" stroke="#1D120E" stroke-width="1.2565" stroke-miterlimit="10" stroke-linecap="round" stroke-linejoin="round"/>
<path d="M194.4 112.711L194.249 121.51C194.249 121.51 191.215 123.94 190.612 130.309C190.008 136.678 196.076 142.594 202.897 142.594C209.727 142.594 215.643 137.281 216.699 132.429C217.763 127.577 216.397 120.596 216.397 120.596L215.945 109.979C215.945 109.979 209.266 114.228 202.897 113.012C196.528 111.797 194.701 109.526 194.701 109.526L194.4 112.711Z" fill="#F4F4F5" stroke="#1D120E" stroke-width="1.2565" stroke-miterlimit="10" stroke-linecap="round" stroke-linejoin="round"/>
<path d="M189.648 89.7497C189.648 89.7497 189.238 94.786 190.327 96.0095C191.416 97.233 192.916 98.1883 193.184 97.0989C193.453 96.0095 193.595 90.2944 193.863 89.0625C194.14 87.839 189.782 86.3474 189.648 89.7497Z" fill="#F4F4F5" stroke="#1D120E" stroke-width="1.2565" stroke-miterlimit="10" stroke-linecap="round" stroke-linejoin="round"/>
<path d="M192.313 89.6744C192.313 89.6744 191.056 99.7555 191.056 104.591C191.056 109.418 189.162 111.312 195.254 114.462C201.346 117.613 206.592 118.032 210.799 116.566C214.997 115.099 217.31 111.521 217.52 108.588C217.729 105.647 217.729 101.029 217.729 101.029C217.729 101.029 223.612 95.775 222.347 91.7861C221.09 87.7973 218.358 92.8336 218.358 92.8336C218.358 92.8336 220.252 87.5794 220.042 82.124C219.833 76.6602 215.634 76.0317 213.95 76.0317C212.265 76.0317 201.975 72.8809 197.148 76.0317C192.313 79.1742 192.313 89.6744 192.313 89.6744Z" fill="#F4F4F5" stroke="#1D120E" stroke-width="1.2565" stroke-miterlimit="10" stroke-linecap="round" stroke-linejoin="round"/>
<path d="M218.358 92.8254C218.358 92.8254 220.252 87.5712 220.042 82.1158C219.833 76.652 215.634 76.0235 213.95 76.0235C213.925 76.0235 213.866 76.0151 213.833 76.0151C212.944 77.5068 211.847 79.8029 211.847 79.8029L212.685 80.2219C212.685 80.2219 211.847 84.8393 213.523 85.4762C215.207 86.1047 214.361 87.5795 214.361 90.0935C214.361 92.6159 215.827 94.5014 216.674 94.5014C217.336 94.5014 218.383 92.817 218.802 92.0964C218.526 92.507 218.358 92.8254 218.358 92.8254Z" fill="#FFCBD0" stroke="#1D120E" stroke-width="1.2565" stroke-miterlimit="10" stroke-linecap="round" stroke-linejoin="round"/>
<path d="M201.766 93.4287C201.766 93.4287 199.998 95.0628 200.81 96.2863C201.623 97.5098 204.623 98.1886 205.436 96.6969C206.249 95.1969 205.302 93.8393 204.891 93.5628" stroke="#1D120E" stroke-width="1.2565" stroke-miterlimit="10" stroke-linecap="round" stroke-linejoin="round"/>
<path d="M199.364 91.7945C199.364 92.1486 199.291 92.4442 199.197 92.6327C199.166 92.6959 199.139 92.7361 199.118 92.7613C199.097 92.7361 199.07 92.6959 199.039 92.6327C198.945 92.4442 198.872 92.1486 198.872 91.7945C198.872 91.4403 198.945 91.1447 199.039 90.9563C199.07 90.893 199.097 90.8528 199.118 90.8276C199.139 90.8528 199.166 90.893 199.197 90.9563C199.291 91.1447 199.364 91.4403 199.364 91.7945ZM199.075 92.8013C199.075 92.8012 199.076 92.8009 199.077 92.8004L199.075 92.8013ZM199.159 92.8004C199.16 92.8009 199.16 92.8012 199.16 92.8013L199.159 92.8004ZM199.16 90.7876C199.16 90.7877 199.16 90.788 199.159 90.7885L199.16 90.7876ZM199.077 90.7885C199.076 90.788 199.075 90.7877 199.075 90.7876L199.077 90.7885Z" fill="#FFCBD0" stroke="#1D120E"/>
<path d="M208.414 92.1968C208.414 92.551 208.341 92.8465 208.247 93.035C208.216 93.0982 208.188 93.1384 208.168 93.1637C208.147 93.1384 208.12 93.0982 208.088 93.035C207.994 92.8465 207.922 92.551 207.922 92.1968C207.922 91.8426 207.994 91.5471 208.088 91.3586C208.119 91.2978 208.145 91.2582 208.165 91.2328C208.187 91.2589 208.215 91.3002 208.247 91.3649C208.341 91.554 208.414 91.8477 208.414 92.1968ZM208.125 93.2036C208.125 93.2036 208.126 93.2033 208.127 93.2028L208.125 93.2036ZM208.209 93.2028C208.21 93.2033 208.21 93.2036 208.21 93.2036L208.209 93.2028ZM208.21 91.19C208.21 91.19 208.21 91.1903 208.209 91.1908L208.21 91.19Z" fill="#FFCBD0" stroke="#1D120E"/>
<path d="M206.668 88.1157C206.668 88.1157 209.526 86.2134 212.249 89.2051" stroke="#1D120E" stroke-width="1.2565" stroke-miterlimit="10" stroke-linecap="round" stroke-linejoin="round"/>
<path d="M202.327 101.515C202.327 101.515 201.137 100.87 199.997 101.415C198.858 101.951 198.64 102.873 198.64 102.873C198.64 102.873 196.897 104.281 198.732 104.893C200.567 105.504 204.573 105.462 205.603 105.412C206.634 105.362 206.978 104.306 206.944 103.677C206.919 103.049 206.517 102.865 206.517 102.865C206.517 102.865 205.117 100.409 202.327 101.515Z" fill="#3F3F46" stroke="#1D120E" stroke-width="0.9227" stroke-miterlimit="10" stroke-linecap="round" stroke-linejoin="round"/>
<path d="M198.246 103.401C198.246 103.401 201.992 102.613 206.702 103.903" stroke="#1D120E" stroke-width="1.0733" stroke-miterlimit="10" stroke-linecap="round" stroke-linejoin="round"/>
<path d="M188.743 78.1181L211.218 81.269C211.218 81.269 220.671 78.7466 221.509 76.8611C222.347 74.9673 219.196 65.523 217.52 63.2101C215.836 60.8972 199.671 64.8945 194.626 65.7325C189.581 66.5705 185.802 67.8359 186.011 70.3499C186.221 72.8723 188.743 78.1181 188.743 78.1181Z" fill="#71717A" stroke="#1D120E" stroke-width="1.2565" stroke-miterlimit="10" stroke-linecap="round" stroke-linejoin="round"/>
<path d="M188.743 78.1182C188.743 78.1182 175.93 88.6183 175.72 89.6742C175.511 90.7217 194.416 91.1407 200.291 89.8837C206.173 88.6267 211.21 81.269 211.21 81.269L188.743 78.1182Z" fill="white" stroke="#1D120E" stroke-width="1.2565" stroke-miterlimit="10" stroke-linecap="round" stroke-linejoin="round"/>
<path d="M174.741 217.343L209.978 196.703C212.149 198.329 215.166 198.597 217.655 197.139C220.462 195.497 221.677 192.187 220.797 189.203L213.448 193.511L211.747 190.611L219.096 186.304C216.917 184.075 213.439 183.522 210.632 185.164C208.143 186.622 206.903 189.379 207.263 192.069L172.025 212.709C169.855 211.083 166.838 210.815 164.349 212.273C161.542 213.916 160.327 217.226 161.207 220.209L168.363 216.019L170.064 218.919L162.908 223.109C165.087 225.338 168.564 225.891 171.372 224.248C173.852 222.79 175.101 220.033 174.741 217.343Z" fill="#71717A" stroke="#1D120E" stroke-width="1.2565" stroke-miterlimit="10" stroke-linecap="round" stroke-linejoin="round"/>
<path d="M204.715 202C204.715 202 209.048 205.092 209.048 207.983C209.048 210.874 203.885 213.967 200.374 214.176C196.863 214.386 196.243 210.464 196.863 208.394C197.491 206.332 204.715 202 204.715 202Z" fill="#F4F4F5" stroke="#1D120E" stroke-width="1.2565" stroke-miterlimit="10" stroke-linecap="round" stroke-linejoin="round"/>
<path d="M159.304 176.198C159.304 176.198 183.246 189.614 186.548 189.204C189.849 188.793 194.391 185.902 196.872 186.723C199.352 187.553 206.157 198.078 206.777 199.93C207.397 201.79 201.824 208.394 200.584 209.424C199.344 210.455 195.422 214.587 194.601 214.997C193.771 215.408 188.408 220.159 185.726 220.159C183.045 220.159 178.503 218.098 178.092 217.067C177.682 216.036 178.712 214.587 178.712 214.587L166.117 208.804C166.117 208.804 142.175 195.799 138.044 189.195C133.913 182.592 144.237 170.826 144.237 170.826" fill="#F4F4F5"/>
<path d="M159.304 176.198C159.304 176.198 183.246 189.614 186.548 189.204C189.849 188.793 194.391 185.902 196.872 186.723C199.352 187.553 206.157 198.078 206.777 199.93C207.397 201.79 201.824 208.394 200.584 209.424C199.344 210.455 195.422 214.587 194.601 214.997C193.771 215.408 188.408 220.159 185.726 220.159C183.045 220.159 178.503 218.098 178.092 217.067C177.682 216.036 178.712 214.587 178.712 214.587L166.117 208.804C166.117 208.804 142.175 195.799 138.044 189.195C133.913 182.592 144.237 170.826 144.237 170.826" stroke="#1D120E" stroke-width="1.2565" stroke-miterlimit="10" stroke-linecap="round" stroke-linejoin="round"/>
<path d="M186.967 208.603C186.967 208.603 189.447 208.813 189.858 211.494C190.269 214.176 189.238 218.927 189.238 218.927" stroke="#1D120E" stroke-width="1.2565" stroke-miterlimit="10" stroke-linecap="round" stroke-linejoin="round"/>
<path d="M191.71 204.681C191.71 204.681 194.601 204.891 194.601 207.572C194.601 210.254 194.601 215.005 194.601 215.005" stroke="#1D120E" stroke-width="1.2565" stroke-miterlimit="10" stroke-linecap="round" stroke-linejoin="round"/>
<path d="M194.811 197.257C194.811 197.257 200.174 201.179 200.593 203.45C201.003 205.721 200.593 209.433 200.593 209.433" stroke="#1D120E" stroke-width="1.2565" stroke-miterlimit="10" stroke-linecap="round" stroke-linejoin="round"/>
<path d="M218.735 183.103C219.933 183.103 223.135 175.108 223.135 172.108C223.135 169.108 224.534 147.119 227.735 136.929C230.031 129.613 232.009 123.965 232.948 121.342C230.509 120.714 227.903 120.161 225.221 119.7C223.621 124.552 218.735 139.694 216.741 149.323C214.344 160.913 214.939 174.706 215.14 175.904C215.341 177.111 217.537 183.103 218.735 183.103Z" fill="white" stroke="#1D120E" stroke-width="1.2565" stroke-miterlimit="10" stroke-linecap="round" stroke-linejoin="round"/>
<path d="M222.179 166.938L215.299 166.024C214.738 165.949 214.344 165.429 214.411 164.868L215.14 159.379C215.215 158.818 215.735 158.424 216.296 158.491L223.176 159.404C223.738 159.48 224.132 159.999 224.065 160.561L223.335 166.05C223.26 166.619 222.74 167.013 222.179 166.938Z" fill="white" stroke="#1D120E" stroke-width="1.2565" stroke-miterlimit="10" stroke-linecap="round" stroke-linejoin="round"/>
<path d="M220.704 165.312L217.151 164.843C216.589 164.767 216.195 164.248 216.262 163.686L216.623 161.005C216.698 160.443 217.218 160.049 217.779 160.116L221.332 160.586C221.894 160.661 222.288 161.181 222.22 161.742L221.869 164.424C221.785 164.993 221.265 165.387 220.704 165.312Z" fill="white" stroke="#1D120E" stroke-width="1.2565" stroke-miterlimit="10" stroke-linecap="round" stroke-linejoin="round"/>
<path d="M173.961 180.103C175.159 180.103 178.36 172.108 178.36 169.108C178.36 166.108 179.76 144.119 182.961 133.929C184.989 127.451 186.371 123.328 187.117 121.166C184 121.87 181.033 122.515 180.036 122.641C179.307 122.733 178.26 124.602 177.128 127.526C175.804 131.624 174.179 136.971 172.905 142.175C171.924 146.599 171.137 151.166 170.776 155.18C170.466 158.566 170.5 163.242 170.718 168.354C170.734 168.505 170.751 168.63 170.768 168.706C170.969 169.912 172.762 180.103 173.961 180.103Z" fill="white" stroke="#1D120E" stroke-width="1.2565" stroke-miterlimit="10" stroke-linecap="round" stroke-linejoin="round"/>
<path d="M177.706 160.661L170.81 159.924C170.248 159.865 169.838 159.354 169.896 158.792L170.483 153.287C170.541 152.725 171.053 152.315 171.614 152.373L178.511 153.111C179.072 153.169 179.483 153.681 179.424 154.242L178.838 159.748C178.779 160.317 178.276 160.72 177.706 160.661Z" fill="white" stroke="#1D120E" stroke-width="1.2565" stroke-miterlimit="10" stroke-linecap="round" stroke-linejoin="round"/>
<path d="M176.198 159.077L172.637 158.7C172.075 158.642 171.665 158.13 171.723 157.569L172.008 154.879C172.067 154.318 172.578 153.907 173.14 153.966L176.701 154.343C177.263 154.401 177.673 154.912 177.614 155.474L177.33 158.164C177.263 158.725 176.76 159.136 176.198 159.077Z" fill="white" stroke="#1D120E" stroke-width="1.2565" stroke-miterlimit="10" stroke-linecap="round" stroke-linejoin="round"/>
</svg>
